<?xml version="1.0" encoding="utf-8"?>
<!-- Generator: Adobe Illustrator 16.0.0, SVG Export Plug-In . SVG Version: 6.00 Build 0)  -->
<!DOCTYPE svg PUBLIC "-//W3C//DTD SVG 1.1//EN" "http://www.w3.org/Graphics/SVG/1.1/DTD/svg11.dtd">
<svg version="1.1" id="Layer_1" xmlns="http://www.w3.org/2000/svg" xmlns:xlink="http://www.w3.org/1999/xlink" x="0px" y="0px"
	 width="400px" height="600px" viewBox="0 0 400 600" enable-background="new 0 0 400 600" xml:space="preserve">
<g id="layer101">
	<path fill="#DEE0ED" d="M43.5,298V10.5H204h160.5V298v287.5H204H43.5V298z"/>
</g>
<g id="layer102">
	<path fill="#FFFFFF" d="M0,300V0h200h200v300v300H200H0V300z M195.5,580.4c12.7-1.2,15.3-5,16.6-24.4c0.4-6.9,1.2-18.7,1.8-26.2
		c0.9-14.399,5-30.3,7.4-29.5c0.7,0.2,1.7,2.3,2.4,4.8c0.699,2.4,1.899,6.4,2.8,8.9c1.399,3.8,1.6,6.8,1.1,19
		c-0.6,12.9-0.5,15.2,1.3,21c2.5,7.9,7.601,16.6,11.4,19.4c5.7,4.199,15.1,1.8,17.7-4.5c2.1-5,0.6-17-3.5-28.9
		c-3.7-10.4-3.7-10.6-3-22l0.6-11.6l-3-4.101c-1.7-2.3-4.1-4.899-5.5-5.8c-2.6-1.7-4-7.2-5.1-20c-0.3-3.8-1.3-10.1-2.2-13.9
		c-1.5-6.399-1.5-7.699,0-16c2.2-11.699,2.4-18.6,1.4-43.6l-0.801-20.5l8-38.2c4.4-21,8.601-42.399,9.101-47.7
		c1.6-13.7-0.601-34.6-6.2-59.1c-1.5-6.5-6.1-17.5-10.5-24.8c-4.5-7.5-5.8-15.8-4.3-28.2c1.399-11.8,5-31.8,6-32.8
		c0.399-0.5,1.3,1.3,1.899,4c1.7,6.8,9.5,21,21.4,38.9c5.6,8.5,12.4,19.2,15.1,23.9c5.2,9,14.9,21.6,26,34c6.7,7.4,8.4,8.3,18.8,10
		c2.4,0.4,5.5,2.1,8.4,4.5c5,4.4,4.6,4.2,6.8,3.4c2.3-0.9,2.101-1.4-2.399-7.4c-2.5-3.3-3.7-5.7-3.101-6.3c0.601-0.6,3.7-0.1,8,1.2
		c3.9,1.2,8.601,2.2,10.4,2.3c6.2,0.4,11.7-0.2,11.7-1.2c0-1.5-5.301-3.9-10.101-4.6c-2.399-0.3-6.8-1.8-9.7-3.2
		c-4.199-2-7.399-2.6-15.1-3l-9.7-0.4l-3.7-5.7c-5.199-8-12.899-24.8-17.3-37.6c-2-6-4.899-12.5-6.3-14.3
		c-16-20.5-20.5-29.5-31.3-61.7c-2.7-8.2-6-16.5-7.1-18.2c-3-4.5-7.301-6.3-14.9-6.3c-11.9,0-20.5-4.3-22.1-11
		c-0.7-2.7,1.6-12.8,3.899-17.1c0.7-1.5,2.3-3.1,3.5-3.4c1.3-0.4,3.101-2.9,4.8-6.3c3.7-8,3.601-21.7-0.3-34.7
		c-3.2-10.5-5.8-13.7-12.899-16.1c-6.101-2-19.801-1.4-25.101,1.1c-5.1,2.5-12.3,10.7-15.8,18c-2.6,5.7-2.9,7.2-2.4,12.7
		c1.2,14.7,1.601,16.1,5.7,20.5c2.2,2.4,3.9,5.1,3.9,6.2s0.8,3.9,1.899,6.3c4,9.5,3.9,15.5-0.6,20.8c-3.7,4.4-7.5,6.1-15.6,6.6
		c-14.2,1.1-15.601,2.7-16.801,19.8c-2.5,36.5-7.6,59-16.899,75.6c-2.601,4.7-7.3,13.7-10.5,20c-4.7,9.4-15.8,26.9-21.7,34
		c-3.2,3.9-6.2,5-13.5,5c-5.4,0-9.2,0.7-14.6,2.6c-3.9,1.5-9.4,3.1-12.2,3.7C52.4,269.7,49,271,49,272.5c0,3.4,10.6,3.4,20.2,0
		c10.699-3.7,12-3.2,7.3,2.9c-1.4,1.8-2.8,4.7-3.101,6.4c-0.899,4.4,1.601,4.3,6.301-0.3c3.5-3.4,8.5-5.5,13.1-5.5
		c6.8,0,19.9-11.6,37.9-33.3c6.399-7.8,13.6-16.3,15.899-18.8c5-5.4,8.3-11.7,11.5-21.6c1.2-4,2.7-6.9,3.2-6.6
		c1.5,0.9,0.2,13.5-2.6,26.8c-5.2,24.7-8.601,42.2-9.2,47.6c-1.101,10.5,5.3,33.6,16.6,59.7c20.2,46.4,20.9,48.5,20.9,63.2
		c0,9,2.8,21.1,7.399,32.3c6.9,16.9,6.9,16.7,6.2,39.5c-1,31.3-2.3,43.5-5.2,50.5c-1.399,3.2-4.199,12.2-6.399,20
		c-2.101,7.8-6.2,19.5-8.9,26c-2.8,6.5-5.1,12.8-5.1,14.2c0,3.8,4.6,6.8,9.5,6.1C186.7,581.3,191.7,580.8,195.5,580.4z"/>
</g>
</svg>
